<?xml version="1.0" encoding="UTF-8" standalone="yes"?><svg id="图层_1" xmlns="http://www.w3.org/2000/svg" xmlns:xlink="http://www.w3.org/1999/xlink" version="1.2" baseProfile="tiny" x="0" y="0" width="256" height="256" viewBox="0 0 256 256"><defs><linearGradient id="wps{693766b6-bc15-421b-a3a7-bab7d0011266}_solid@Accent1_0.00@Accent1_0.00" x1="0" y1="0.5" x2="1" y2="0.5" spreadMethod="pad" gradientUnits="userSpaceOnUse"><stop offset="0" stop-color="#4874cb" stop-opacity="1"/><stop offset="1" stop-color="#4874cb" stop-opacity="1"/></linearGradient></defs><defs><clipPath id="clip-path" clipPathUnits="userSpaceOnUse"><rect class="cls-1" fill="none" x="0" y="0" width="256" height="256"/></clipPath></defs><g class="cls-2" clip-path="url(#clip-path)"><g><path fill="#333333" stroke="url(#wps{693766b6-bc15-421b-a3a7-bab7d0011266}_solid@Accent1_0.00@Accent1_0.00)" stroke-width="15.8242" stroke-opacity="1" d="M 68.55 109.69 C 67.338 109.69 66.1758 109.208 65.32 108.35 L 36.56 79.59 L 7.8 108.35 C 6.65835 109.563 4.94722 110.059 3.33404 109.644 C 1.72086 109.229 0.461159 107.969 0.0462944 106.356 C -0.36857 104.743 0.127114 103.032 1.34 101.89 L 33.34 69.89 C 35.1244 68.1073 38.0156 68.1073 39.8 69.89 L 71.8 101.89 C 73.1071 103.198 73.4968 105.165 72.7874 106.873 C 72.078 108.581 70.4093 109.693 68.56 109.69 L 68.55 109.69 Z"/><path fill="#333333" stroke="url(#wps{693766b6-bc15-421b-a3a7-bab7d0011266}_solid@Accent1_0.00@Accent1_0.00)" stroke-width="15.8242" stroke-opacity="1" d="M 187.38 210.23 L 54.84 210.23 C 42.2288 210.213 32.011 199.991 32 187.38 L 32 77.7 C 32 75.1761 34.0461 73.13 36.57 73.13 C 39.0939 73.13 41.14 75.1761 41.14 77.7 L 41.14 187.38 C 41.1565 194.945 47.285 201.074 54.85 201.09 L 187.38 201.09 C 189.904 201.09 191.95 203.136 191.95 205.66 C 191.95 208.184 189.904 210.23 187.38 210.23 Z"/><path fill="#333333" stroke="url(#wps{693766b6-bc15-421b-a3a7-bab7d0011266}_solid@Accent1_0.00@Accent1_0.00)" stroke-width="15.8242" stroke-opacity="1" d="M 219.38 187.38 C 218.165 187.381 217 186.899 216.14 186.04 L 184.14 154.04 C 182.356 152.253 182.358 149.359 184.145 147.575 C 185.932 145.791 188.826 145.793 190.61 147.58 L 219.37 176.34 L 248.13 147.58 C 249.272 146.367 250.983 145.871 252.596 146.286 C 254.209 146.701 255.469 147.961 255.884 149.574 C 256.299 151.187 255.803 152.898 254.59 154.04 L 222.59 186.04 C 221.739 186.893 220.585 187.375 219.38 187.38 Z"/><path fill="#333333" stroke="url(#wps{693766b6-bc15-421b-a3a7-bab7d0011266}_solid@Accent1_0.00@Accent1_0.00)" stroke-width="15.8242" stroke-opacity="1" d="M 219.37 182.81 C 218.157 182.813 216.993 182.332 216.136 181.474 C 215.278 180.617 214.797 179.453 214.8 178.24 L 214.8 68.55 C 214.784 60.985 208.655 54.8565 201.09 54.84 L 68.55 54.84 C 66.0261 54.84 63.98 52.7939 63.98 50.27 C 63.98 47.7461 66.0261 45.7 68.55 45.7 L 201.09 45.7 C 213.705 45.711 223.929 55.9349 223.94 68.55 L 223.94 178.24 C 223.945 179.454 223.466 180.619 222.607 181.477 C 221.749 182.336 220.584 182.815 219.37 182.81 Z"/></g></g></svg>
